<svg width="19" height="16" viewBox="0 0 19 16" fill="none" xmlns="http://www.w3.org/2000/svg">
<path d="M18.6527 2.13805C17.9941 2.43781 17.2773 2.65355 16.5391 2.73758C17.3056 2.25712 17.8796 1.49809 18.1534 0.602875C17.4341 1.05432 16.6461 1.37088 15.8244 1.53851C15.481 1.15114 15.0657 0.842552 14.6042 0.63196C14.1428 0.421368 13.6453 0.313291 13.1425 0.314463C11.1085 0.314463 9.47264 2.05402 9.47264 4.18872C9.47264 4.48849 9.50708 4.78826 9.56304 5.07667C6.51736 4.90862 3.801 3.37345 1.99511 1.023C1.66606 1.61599 1.49363 2.29117 1.49575 2.9783C1.49575 4.32271 2.14363 5.50815 3.13159 6.20534C2.54937 6.18115 1.98078 6.0123 1.47207 5.71254V5.76023C1.47207 7.64286 2.73339 9.20301 4.41444 9.56182C4.0988 9.64832 3.77411 9.69258 3.448 9.69354C3.20908 9.69354 2.98308 9.66856 2.75492 9.63449C3.21984 11.1697 4.57372 12.2847 6.18589 12.321C4.92456 13.3634 3.34468 13.9766 1.6292 13.9766C1.3214 13.9766 1.03728 13.9652 0.742401 13.9289C2.36963 15.0303 4.30036 15.6662 6.3796 15.6662C13.1296 15.6662 16.8232 9.76621 16.8232 4.64519C16.8232 4.47714 16.8232 4.30908 16.8124 4.14103C17.527 3.58919 18.1534 2.90563 18.6527 2.13805Z" fill="white"/>
</svg>
