<svg width="17" height="16" viewBox="0 0 17 16" fill="none" xmlns="http://www.w3.org/2000/svg">
<path d="M8.05957 3.89049C5.7908 3.89049 3.95978 5.72151 3.95978 7.99028C3.95978 10.2591 5.7908 12.0901 8.05957 12.0901C10.3283 12.0901 12.1594 10.2591 12.1594 7.99028C12.1594 5.72151 10.3283 3.89049 8.05957 3.89049ZM8.05957 10.6548C6.59236 10.6548 5.39501 9.45749 5.39501 7.99028C5.39501 6.52307 6.59236 5.32572 8.05957 5.32572C9.52678 5.32572 10.7241 6.52307 10.7241 7.99028C10.7241 9.45749 9.52678 10.6548 8.05957 10.6548ZM12.3273 2.7671C11.7976 2.7671 11.3698 3.19487 11.3698 3.72458C11.3698 4.2543 11.7976 4.68207 12.3273 4.68207C12.857 4.68207 13.2848 4.2563 13.2848 3.72458C13.2849 3.5988 13.2603 3.47422 13.2122 3.35798C13.1641 3.24175 13.0936 3.13613 13.0047 3.04719C12.9157 2.95825 12.8101 2.88773 12.6939 2.83966C12.5776 2.7916 12.4531 2.76694 12.3273 2.7671ZM16.0513 7.99028C16.0513 6.88688 16.0613 5.79347 15.9993 4.69206C15.9373 3.41275 15.6455 2.27737 14.71 1.34187C13.7725 0.404376 12.6391 0.114533 11.3598 0.0525665C10.2564 -0.00940007 9.16298 0.000594567 8.06157 0.000594567C6.95817 0.000594567 5.86476 -0.00940007 4.76335 0.0525665C3.48404 0.114533 2.34865 0.406375 1.41316 1.34187C0.475666 2.27936 0.185822 3.41275 0.123856 4.69206C0.061889 5.79547 0.0718836 6.88888 0.0718836 7.99028C0.0718836 9.09169 0.061889 10.1871 0.123856 11.2885C0.185822 12.5678 0.477665 13.7032 1.41316 14.6387C2.35065 15.5762 3.48404 15.866 4.76335 15.928C5.86676 15.99 6.96017 15.98 8.06157 15.98C9.16498 15.98 10.2584 15.99 11.3598 15.928C12.6391 15.866 13.7745 15.5742 14.71 14.6387C15.6475 13.7012 15.9373 12.5678 15.9993 11.2885C16.0633 10.1871 16.0513 9.09369 16.0513 7.99028ZM14.2922 12.7037C14.1463 13.0675 13.9704 13.3394 13.6885 13.6192C13.4067 13.9011 13.1368 14.077 12.773 14.2229C11.7216 14.6407 9.22494 14.5467 8.05957 14.5467C6.8942 14.5467 4.39555 14.6407 3.34412 14.2249C2.98031 14.079 2.70846 13.9031 2.42861 13.6212C2.14676 13.3394 1.97086 13.0695 1.82494 12.7057C1.40916 11.6523 1.50311 9.15565 1.50311 7.99028C1.50311 6.82491 1.40916 4.32626 1.82494 3.27483C1.97086 2.91102 2.14676 2.63917 2.42861 2.35932C2.71046 2.07947 2.98031 1.90157 3.34412 1.75565C4.39555 1.33987 6.8942 1.43382 8.05957 1.43382C9.22494 1.43382 11.7236 1.33987 12.775 1.75565C13.1388 1.90157 13.4107 2.07747 13.6905 2.35932C13.9724 2.64117 14.1483 2.91102 14.2942 3.27483C14.71 4.32626 14.616 6.82491 14.616 7.99028C14.616 9.15565 14.71 11.6523 14.2922 12.7037Z" fill="white"/>
</svg>
