<svg width="22" height="16" viewBox="0 0 22 16" fill="none" xmlns="http://www.w3.org/2000/svg">
<path d="M21.3058 2.72809C21.1821 2.26509 20.9402 1.84284 20.6043 1.50338C20.2683 1.16392 19.8501 0.919086 19.3912 0.793243C17.6895 0.32213 10.8817 0.314461 10.8817 0.314461C10.8817 0.314461 4.07492 0.306792 2.37215 0.757088C1.9135 0.888722 1.49612 1.13702 1.16007 1.47815C0.824015 1.81927 0.58058 2.24177 0.453132 2.70508C0.00434837 4.42081 1.59209e-06 7.97935 1.59209e-06 7.97935C1.59209e-06 7.97935 -0.00434497 11.5554 0.441179 13.2536C0.691107 14.1926 1.42459 14.9343 2.35693 15.1874C4.076 15.6585 10.8654 15.6662 10.8654 15.6662C10.8654 15.6662 17.6732 15.6738 19.3749 15.2246C19.834 15.099 20.2526 14.8547 20.5894 14.516C20.9261 14.1772 21.1693 13.7557 21.295 13.2931C21.7448 11.5784 21.7481 8.02099 21.7481 8.02099C21.7481 8.02099 21.7698 4.44382 21.3058 2.72809ZM8.70402 11.276L8.70946 4.70238L14.3676 7.99469L8.70402 11.276Z" fill="white"/>
</svg>
