<?xml version="1.0" standalone="no"?>
<!DOCTYPE svg PUBLIC "-//W3C//DTD SVG 20010904//EN"
 "http://www.w3.org/TR/2001/REC-SVG-20010904/DTD/svg10.dtd">
<svg version="1.0" xmlns="http://www.w3.org/2000/svg"
 width="800.000000pt" height="800.000000pt" viewBox="0 0 800.000000 800.000000"
 preserveAspectRatio="xMidYMid meet">
<metadata>
Created by potrace 1.16, written by Peter Selinger 2001-2019
</metadata>
<g transform="translate(0.000000,800.000000) scale(0.100000,-0.100000)"
fill="#000000" stroke="none">
<path d="M1005 4809 c-313 -45 -576 -269 -671 -572 l-18 -58 485 -485 c552
-553 482 -504 627 -442 282 122 466 374 497 681 l7 67 -261 0 -261 0 0 -75 0
-75 175 0 175 0 -6 -27 c-13 -53 -71 -168 -117 -230 -56 -75 -137 -141 -232
-189 l-69 -35 -425 425 -426 426 12 31 c45 118 183 271 298 331 118 61 209 81
345 75 186 -8 321 -67 452 -199 75 -75 71 -74 138 -16 l42 37 -20 29 c-38 52
-150 150 -222 193 -91 54 -213 95 -320 108 -95 12 -120 12 -205 0z"/>
<path d="M294 3919 c22 -204 117 -398 254 -520 136 -121 298 -191 495 -214 47
-5 57 -4 57 8 0 18 -773 780 -797 786 -14 3 -15 -5 -9 -60z"/>
</g>
</svg>
