<?xml version="1.0" standalone="no"?>
<!DOCTYPE svg PUBLIC "-//W3C//DTD SVG 20010904//EN"
 "http://www.w3.org/TR/2001/REC-SVG-20010904/DTD/svg10.dtd">
<svg version="1.0" xmlns="http://www.w3.org/2000/svg"
 width="800.000000pt" height="800.000000pt" viewBox="0 0 800.000000 800.000000"
 preserveAspectRatio="xMidYMid meet">
<metadata>
Created by potrace 1.16, written by Peter Selinger 2001-2019
</metadata>
<g transform="translate(0.000000,800.000000) scale(0.100000,-0.100000)"
fill="#000000" stroke="none">
<path d="M3605 7986 c-515 -56 -954 -185 -1405 -411 -942 -472 -1672 -1318
-2002 -2319 -92 -280 -161 -611 -188 -906 -11 -123 -14 -608 -4 -634 6 -14
124 -16 1235 -16 l1228 0 3 -533 3 -534 28 -40 c15 -22 45 -49 66 -61 38 -22
45 -22 490 -22 248 0 451 -3 451 -6 0 -4 -35 -45 -77 -92 -383 -421 -383 -421
-383 -464 0 -30 7 -46 29 -69 27 -27 35 -29 103 -30 40 0 431 -4 868 -8 642
-7 801 -6 827 4 40 17 67 66 58 107 -5 20 -84 115 -242 292 l-235 261 513 5
c551 5 545 5 590 56 50 57 49 48 49 609 l0 525 1189 0 c1124 0 1190 -1 1194
-17 3 -10 5 124 6 297 1 422 -23 636 -110 990 -300 1207 -1163 2221 -2309
2711 -341 145 -680 237 -1090 295 -156 22 -717 28 -885 10z m620 -1737 c209
-26 415 -105 552 -213 145 -114 271 -312 347 -547 19 -59 51 -183 71 -275 19
-93 37 -179 40 -191 4 -17 15 -22 54 -28 118 -16 233 -101 287 -211 l29 -59 3
-512 3 -513 -191 0 -190 0 0 -405 0 -405 -1184 0 -1183 0 -8 318 c-4 175 -4
357 0 405 l7 87 1184 0 1184 0 0 455 0 455 -1190 0 -1190 0 0 -455 0 -455
-190 0 -191 0 3 508 3 507 27 57 c50 108 147 189 255 214 30 7 56 14 57 16 2
2 18 77 35 168 18 91 48 217 67 280 43 142 135 332 207 425 216 281 651 429
1102 374z m169 -3971 l208 -233 -524 -3 c-287 -1 -563 1 -611 5 l-88 8 206
228 206 227 197 0 197 0 209 -232z"/>
<path d="M3910 5869 c-102 -11 -218 -42 -298 -80 -94 -45 -205 -158 -253 -259
-58 -120 -109 -292 -145 -492 l-6 -38 820 0 820 0 -24 113 c-113 537 -268 711
-669 757 -101 11 -137 11 -245 -1z"/>
<path d="M3987 3655 c-72 -25 -117 -87 -117 -160 0 -42 20 -94 43 -114 15 -12
17 -38 17 -187 l0 -173 30 -34 c17 -19 42 -37 56 -40 41 -8 91 11 114 42 18
27 20 44 20 196 0 165 0 167 27 202 34 44 44 134 20 179 -23 44 -67 81 -112
93 -49 13 -51 13 -98 -4z"/>
<path d="M2400 1634 c-241 -63 -420 -287 -445 -554 -8 -90 3 -157 44 -266 28
-71 42 -91 119 -171 98 -102 179 -148 309 -177 257 -57 481 33 650 261 63 85
84 94 157 69 l50 -18 25 31 c25 29 93 61 131 61 10 0 32 -8 48 -17 29 -17 30
-17 66 15 20 18 39 32 43 32 3 0 21 -14 40 -30 43 -38 76 -38 115 0 l30 30 39
-35 c22 -19 42 -35 45 -35 4 0 26 10 50 21 l43 22 52 -22 c80 -35 101 -27 226
90 l108 99 15 -47 c22 -69 59 -88 175 -88 68 0 98 5 123 18 42 23 66 76 57
126 -14 74 -67 105 -180 105 -86 0 -131 -16 -159 -56 -9 -12 -17 -20 -19 -17
-1 2 -16 23 -32 47 -16 24 -38 48 -49 54 -19 10 -215 16 -692 21 -193 2 -214
4 -233 21 -12 11 -21 25 -21 31 0 8 -24 14 -67 18 -97 7 -158 36 -173 81 -34
103 -225 244 -382 281 -79 19 -236 18 -308 -1z m354 -38 c139 -53 222 -118
319 -253 21 -28 43 -54 50 -56 7 -3 5 -6 -5 -6 -19 -1 -75 51 -152 143 -97
115 -235 178 -393 179 -109 1 -178 -15 -266 -61 -119 -61 -218 -179 -269 -318
-30 -82 -37 -258 -13 -340 46 -161 173 -290 351 -356 87 -33 280 -33 375 0 92
31 160 82 243 180 39 45 82 90 95 99 l24 16 -24 -43 c-32 -58 -162 -187 -231
-228 -100 -59 -161 -76 -283 -76 -276 0 -484 147 -571 404 -30 87 -26 263 8
352 75 198 221 336 404 383 92 23 251 14 338 -19z m-404 -416 c59 -42 78 -143
40 -205 -54 -87 -188 -85 -242 3 -29 47 -30 125 -3 166 42 63 142 81 205 36z
m1048 -28 c7 -5 50 -62 96 -128 l83 -119 -74 -3 c-41 -2 -106 -2 -144 0 l-71
3 21 27 c18 22 31 28 76 30 l55 3 -31 48 c-17 26 -34 47 -38 47 -3 0 -31 -36
-61 -80 l-55 -79 -49 -1 -48 0 24 33 c14 17 51 69 82 115 72 103 100 125 134
104z m-274 -14 c-25 -44 -36 -48 -128 -48 -92 0 -124 -9 -112 -29 5 -7 44 -11
104 -11 123 0 146 -11 150 -67 3 -34 -1 -44 -24 -62 -24 -19 -39 -21 -171 -21
l-144 0 23 30 c22 30 22 30 122 30 101 0 134 8 122 29 -5 7 -44 11 -105 11
-84 0 -102 3 -125 21 -36 28 -36 80 0 108 24 19 40 21 161 21 104 0 133 -3
127 -12z m744 -18 c-21 -29 -25 -30 -100 -30 -71 0 -78 -2 -78 -20 0 -17 8
-20 91 -22 l91 -3 -22 -27 c-20 -26 -27 -28 -91 -28 l-69 0 0 -45 0 -45 -40 0
-40 0 0 125 0 125 140 0 141 0 -23 -30z m322 0 c-21 -29 -23 -30 -106 -30 -68
0 -84 -3 -84 -15 0 -12 17 -15 95 -15 52 0 95 -3 95 -8 0 -4 -7 -18 -16 -30
-13 -20 -24 -22 -95 -22 -72 0 -79 -2 -79 -20 0 -19 7 -20 105 -20 l106 0 -23
-30 -22 -30 -123 0 -123 0 0 125 0 125 146 0 145 0 -21 -30z m428 -46 c23 -16
29 -57 13 -83 -20 -32 -172 -32 -192 0 -5 8 -9 26 -9 41 0 40 33 58 105 58 39
0 69 -6 83 -16z"/>
<path d="M4774 1146 c-17 -13 -19 -27 -19 -128 l0 -113 33 -3 32 -3 0 70 c0
39 3 71 8 71 4 0 42 -31 85 -70 119 -107 137 -98 137 67 l0 113 -35 0 -34 0
-3 -70 -3 -69 -83 74 c-45 41 -86 75 -90 75 -5 0 -17 -6 -28 -14z"/>
<path d="M5105 1136 c-12 -18 -15 -47 -13 -127 l3 -104 33 -3 32 -3 0 70 c0
39 3 71 8 71 4 0 42 -32 85 -70 118 -106 137 -95 137 74 l0 106 -35 0 -34 0
-3 -70 -3 -70 -84 75 c-46 41 -90 75 -97 75 -7 0 -21 -11 -29 -24z"/>
<path d="M5432 1028 l3 -123 119 0 118 0 26 33 25 32 -107 0 c-88 0 -106 3
-106 15 0 12 15 15 76 15 66 0 78 3 95 23 10 12 18 25 19 30 0 4 -43 7 -95 7
-78 0 -95 3 -95 15 0 12 16 15 83 15 81 0 84 1 105 30 l23 30 -146 0 -146 0 3
-122z"/>
<path d="M5750 1120 l-21 -30 55 0 55 0 3 -92 3 -93 35 0 35 0 3 93 3 92 43 0
c28 0 48 6 58 18 36 42 36 42 -111 42 l-140 0 -21 -30z"/>
</g>
</svg>
