<svg id="Layer_1" data-name="Layer 1" xmlns="http://www.w3.org/2000/svg" viewBox="0 0 230.56 230.56"><title>monkey-icon</title><circle cx="115.28" cy="115.28" r="115.28" fill="#fff79e"/><path d="M114.23,123.12A12.81,12.81,0,0,1,134,112.39a69.14,69.14,0,0,1,4.51-5.58,20,20,0,1,0-16.21,35.71,63.24,63.24,0,0,1,1.22-7.07A12.83,12.83,0,0,1,114.23,123.12Z" transform="translate(-77.95 -28.72)" fill="#a16a3d"/><path d="M114.23,123.12a12.83,12.83,0,0,0,9.33,12.33A64,64,0,0,1,134,112.39a12.81,12.81,0,0,0-19.81,10.73Z" transform="translate(-77.95 -28.72)" fill="#f37e67"/><path d="M243.45,103.15A19.91,19.91,0,0,0,233.18,106a67.57,67.57,0,0,1,4.67,5.6,12.67,12.67,0,0,1,5.6-1.3,12.81,12.81,0,0,1,5.3,24.47,65.19,65.19,0,0,1,1.32,7.17,20,20,0,0,0-6.62-38.8Z" transform="translate(-77.95 -28.72)" fill="#7e522c"/><path d="M256.27,123.12a12.82,12.82,0,0,0-12.82-12.81,12.67,12.67,0,0,0-5.6,1.3,63.88,63.88,0,0,1,10.9,23.17A12.81,12.81,0,0,0,256.27,123.12Z" transform="translate(-77.95 -28.72)" fill="#e25d4a"/><path d="M145.09,185.67c0-7.5,3.43-14.39,9.14-19.8a28,28,0,1,1,31.92-42.66l.09-.12V83.63h0c-1.52.13-2.46.14-2.46.14a16.44,16.44,0,0,0,2.45-2v-1A40.88,40.88,0,0,0,173.1,87h0a64.35,64.35,0,0,0-34.57,19.81,69.14,69.14,0,0,0-4.51,5.58,64,64,0,0,0-10.48,23.06A66.23,66.23,0,0,0,121.89,150a64.33,64.33,0,0,0,33.33,56.38C148.92,200.84,145.09,193.6,145.09,185.67Z" transform="translate(-77.95 -28.72)" fill="#c5814c"/><path d="M207.72,212.57l-.25.11Z" transform="translate(-77.95 -28.72)" fill="#fff79e"/><path d="M209.77,211.53c-.25.13-.49.27-.74.39C209.28,211.8,209.52,211.66,209.77,211.53Z" transform="translate(-77.95 -28.72)" fill="#fff79e"/><path d="M210.6,211.08a39,39,0,0,0,6.65-4.7h0A40.38,40.38,0,0,1,210.6,211.08Z" transform="translate(-77.95 -28.72)" fill="#fff79e"/><path d="M186.24,199.2H186c-16.54-.39-28.08-13.7-28.57-14.27a1.93,1.93,0,0,1,2.94-2.51c.11.12,11,12.59,25.75,12.92h.17V123.09h0l-.09.12a27.95,27.95,0,1,0-31.92,42.66c-5.71,5.41-9.14,12.3-9.14,19.8,0,7.93,3.83,15.17,10.13,20.71,7.54,6.63,18.64,10.82,31,10.82v-18ZM178,164a3.89,3.89,0,1,1-3.89,3.89A3.89,3.89,0,0,1,178,164Zm-24.24-24.5c0-5.7,4.33-10.33,9.67-10.33s9.68,4.63,9.68,10.33-4.33,10.33-9.68,10.33S153.75,145.18,153.75,139.47Z" transform="translate(-77.95 -28.72)" fill="#fff79e"/><path d="M237.85,111.61a67.57,67.57,0,0,0-4.67-5.6,64.23,64.23,0,0,0-36.41-19.48c4.29-1.86,4.84-7.51,4.84-7.51-.6.37-1.22.7-1.85,1l-.54.26c-.49.23-1,.45-1.49.65l-.45.19c-.63.24-1.25.47-1.87.67l-.45.13q-.75.24-1.47.42l-.54.14c-.56.14-1.11.27-1.64.38l-.13,0q-.87.18-1.68.3l-.41.07-1.24.17-.27,0-1.33.14h0v39.46h0a27.95,27.95,0,1,1,32,42.74c5.74,5.42,9.19,12.32,9.19,19.84,0,7.93-3.83,15.17-10.14,20.71h0A64.3,64.3,0,0,0,250.07,142a65.19,65.19,0,0,0-1.32-7.17A63.88,63.88,0,0,0,237.85,111.61Z" transform="translate(-77.95 -28.72)" fill="#a16a3d"/><path d="M217.25,206.38c6.31-5.54,10.14-12.78,10.14-20.71,0-7.52-3.45-14.42-9.19-19.84a28,28,0,1,0-32-42.74v72.25h.44c8.86,0,17.45-4.36,25.53-13A1.93,1.93,0,1,1,215,185c-8.84,9.43-18.37,14.21-28.34,14.21h-.45v18a50.49,50.49,0,0,0,21.23-4.52l.25-.11,1.31-.65c.25-.12.49-.26.74-.39l.83-.45a40.38,40.38,0,0,0,6.65-4.7Zm-22-34.63a3.89,3.89,0,1,1,3.89-3.89A3.89,3.89,0,0,1,195.27,171.75Zm13.78-21.95c-5.35,0-9.68-4.62-9.68-10.33s4.33-10.33,9.68-10.33,9.68,4.63,9.68,10.33S214.4,149.8,209.05,149.8Z" transform="translate(-77.95 -28.72)" fill="#ffcc78"/><path d="M163.42,149.8c5.35,0,9.68-4.62,9.68-10.33s-4.33-10.33-9.68-10.33-9.67,4.63-9.67,10.33S158.08,149.8,163.42,149.8Zm-3.37-18.26a3.42,3.42,0,1,1-3.19,3.41A3.31,3.31,0,0,1,160.05,131.54Z" transform="translate(-77.95 -28.72)" fill="#3b2314"/><path d="M218.73,139.47c0-5.7-4.33-10.33-9.68-10.33s-9.68,4.63-9.68,10.33,4.33,10.33,9.68,10.33S218.73,145.18,218.73,139.47Zm-13-1.1a3.42,3.42,0,1,1,3.2-3.42A3.31,3.31,0,0,1,205.68,138.37Z" transform="translate(-77.95 -28.72)" fill="#1f0600"/><path d="M160.05,138.37a3.42,3.42,0,1,0-3.19-3.42A3.31,3.31,0,0,0,160.05,138.37Z" transform="translate(-77.95 -28.72)" fill="#fff"/><path d="M205.68,131.54a3.42,3.42,0,1,0,3.2,3.41A3.31,3.31,0,0,0,205.68,131.54Z" transform="translate(-77.95 -28.72)" fill="#fff"/><path d="M178,171.75a3.89,3.89,0,1,0-3.89-3.89A3.89,3.89,0,0,0,178,171.75Z" transform="translate(-77.95 -28.72)" fill="#3b2314"/><path d="M195.27,164a3.89,3.89,0,1,0,3.89,3.89A3.89,3.89,0,0,0,195.27,164Z" transform="translate(-77.95 -28.72)" fill="#1f0600"/><path d="M186.07,195.34c-14.8-.33-25.64-12.8-25.75-12.92a1.93,1.93,0,0,0-2.94,2.51c.49.57,12,13.88,28.57,14.27h.29v-3.86Z" transform="translate(-77.95 -28.72)" fill="#3b2314"/><path d="M186.24,199.2h.45c10,0,19.5-4.78,28.34-14.21a1.93,1.93,0,1,0-2.82-2.65c-8.08,8.63-16.67,13-25.53,13h-.44Z" transform="translate(-77.95 -28.72)" fill="#1f0600"/></svg>