<svg width="82" height="61" viewBox="0 0 82 61" fill="none" xmlns="http://www.w3.org/2000/svg">
<path d="M18.6374 24.3266C17.7258 24.3266 16.851 24.4652 15.9803 24.5915C16.2623 23.6462 16.5526 22.6845 17.0186 21.8206C17.4846 20.5656 18.2122 19.4776 18.9358 18.3815C19.5408 17.1957 20.6077 16.393 21.3926 15.3784C22.2142 14.3922 23.3343 13.7362 24.2213 12.9172C25.092 12.0615 26.2325 11.6336 27.14 11.0305C28.0884 10.4886 28.9142 9.88958 29.7971 9.60434L32.0005 8.69973L33.9381 7.89699L31.9555 0L29.5151 0.586772C28.7343 0.782363 27.7818 1.01055 26.6986 1.28357C25.5908 1.48731 24.4094 2.04556 23.0931 2.55491C21.7932 3.13353 20.2888 3.52472 18.8908 4.45377C17.4846 5.34208 15.8617 6.0837 14.431 7.27355C13.0452 8.50006 11.3733 9.56359 10.1388 11.1242C8.78977 12.583 7.45714 14.1152 6.42291 15.8592C5.22518 17.5217 4.4117 19.3472 3.55326 21.1524C2.77657 22.9575 2.15113 24.8034 1.64015 26.5963C0.671334 30.1903 0.238023 33.605 0.0704221 36.5266C-0.0685642 39.4524 0.0131925 41.885 0.184881 43.6454C0.246199 44.4766 0.360659 45.2834 0.442415 45.8417L0.54461 46.5262L0.650894 46.5018C1.37796 49.8873 3.05169 52.9984 5.47848 55.4753C7.90526 57.9521 10.9859 59.6936 14.3641 60.4981C17.7423 61.3026 21.2799 61.1373 24.5678 60.0214C27.8557 58.9054 30.7594 56.8844 32.9432 54.1921C35.1269 51.4998 36.5014 48.2463 36.9076 44.8079C37.3138 41.3695 36.7352 37.8866 35.2386 34.7623C33.742 31.638 31.3887 28.9999 28.4508 27.1531C25.513 25.3064 22.1106 24.3264 18.6374 24.3266ZM63.6035 24.3266C62.6919 24.3266 61.8171 24.4652 60.9464 24.5915C61.2285 23.6462 61.5187 22.6845 61.9847 21.8206C62.4507 20.5656 63.1784 19.4776 63.9019 18.3815C64.5069 17.1957 65.5738 16.393 66.3587 15.3784C67.1804 14.3922 68.3004 13.7362 69.1875 12.9172C70.0582 12.0615 71.1987 11.6336 72.1062 11.0305C73.0546 10.4886 73.8803 9.88958 74.7633 9.60434L76.9666 8.69973L78.9043 7.89699L76.9217 0L74.4812 0.586772C73.7005 0.782363 72.748 1.01055 71.6647 1.28357C70.5569 1.48731 69.3755 2.04556 68.0592 2.55491C66.7634 3.13761 65.255 3.52471 63.857 4.45785C62.4507 5.34616 60.8279 6.08777 59.3971 7.27762C58.0114 8.50414 56.3394 9.56767 55.1049 11.1242C53.7559 12.583 52.4233 14.1152 51.3891 15.8592C50.1913 17.5217 49.3779 19.3472 48.5194 21.1524C47.7427 22.9575 47.1173 24.8034 46.6063 26.5963C45.6375 30.1903 45.2042 33.605 45.0366 36.5266C44.8976 39.4524 44.9793 41.885 45.151 43.6454C45.2124 44.4766 45.3268 45.2834 45.4086 45.8417L45.5108 46.5262L45.6171 46.5018C46.3441 49.8873 48.0179 52.9984 50.4446 55.4753C52.8714 57.9521 55.9521 59.6936 59.3303 60.4981C62.7084 61.3026 66.2461 61.1373 69.534 60.0214C72.8218 58.9054 75.7256 56.8844 77.9093 54.1921C80.0931 51.4998 81.4675 48.2463 81.8737 44.8079C82.28 41.3695 81.7013 37.8866 80.2047 34.7623C78.7082 31.638 76.3548 28.9999 73.417 27.1531C70.4791 25.3064 67.0768 24.3264 63.6035 24.3266Z" fill="#D20073"/>
</svg>
